# xmcd
#
# Track frame offsets:
#  150
#  2763
#  14384
#  24478
#  35667
#  49790
#  61335
#  79182
#  90995
#  104490
#  118781
#  133326
#  145350
#  156925
#  169630
#  181762
#  193910
#
# Disc length: 2762 seconds
#
# Revision: 0
# Processed by: cddbd v1.5.2PL0 Copyright (c) Steve Scherf et al.
# Submitted via: Collectorz.com_Music_Collector 6.11
#
DISCID=e50ac811
DTITLE=Various Artist - Dutch Radio Collection (NCRV Radio 1960-1980) [CD4)
DYEAR=2007
DGENRE=Easy Listening
TTITLE0=Tune
TTITLE1=Claire
TTITLE2=I Hear Music
TTITLE3=Dance In The Old Fashioned Way
TTITLE4=I'm Getting Sentimental Over You
TTITLE5=Give Me A Simple Life
TTITLE6=Night Train
TTITLE7=I Thought About You
TTITLE8=I'll Buy That Dream
TTITLE9=It's A Wonderful World
TTITLE10=Sentimental Journey
TTITLE11=On A Slowboat To Chine
TTITLE12=Top Of The World
TTITLE13=Speak Low
TTITLE14=Tie A Yellow Ribbon ('Round The Ol' Oak Tree)
TTITLE15=Aren't You Glad You're You
TTITLE16=I Should Care
EXTD=
EXTT0=
EXTT1=
EXTT2=
EXTT3=
EXTT4=
EXTT5=
EXTT6=
EXTT7=
EXTT8=
EXTT9=
EXTT10=
EXTT11=
EXTT12=
EXTT13=
EXTT14=
EXTT15=
EXTT16=
PLAYORDER=
